# xmcd
#
# Track frame offsets: 
#        150
#        14701
#        32006
#        46975
#        50257
#        68237
#        69539
#        87946
#        102585
#        122451
#        135790
#        155290
#        172472
#        183358
#        201958
#        216822
#        238024
#        248410
#        265434
#        282321
#        293760
#        314153
#
# Disc length: 4462 seconds
#
# Revision: 0
# Processed by: cddbd v1.5.2PL0 Copyright (c) Steve Scherf et al.
# Submitted via: ExactAudioCopyFreeDBPlugin 1.0
#
DISCID=4a116c16
DTITLE=Prinz Pi - !Donnerwetter!
DYEAR=2006
DGENRE=Rap
TTITLE0=!Donnerwetter!
TTITLE1=Instinkt (Album Version)
TTITLE2=Kette (Würfel II)
TTITLE3=Der Plan Skit feat. Martin Semmelrogge
TTITLE4=Bonny's Ranch III
TTITLE5=Pssst Skit
TTITLE6=Die Bomben schlafen
TTITLE7=Von and Zu feat. Taktlo$$
TTITLE8=Meine Roots
TTITLE9=Peng, Peng, Peng
TTITLE10=Berlin, Grosse Liebe
TTITLE11=So viele Fragen
TTITLE12=Singt die Lieder feat. Biztram and Bobidze
TTITLE13=Herr Claasen
TTITLE14=Keine Idole
TTITLE15=Wie die Zeit vergeht feat. Biztram
TTITLE16=Schreibmaschine
TTITLE17=Meene Stadt feat. Frank Zander and Biztram
TTITLE18=Zünd die Welt an
TTITLE19=Schwarz ist das neue Schwarz
TTITLE20=Der Rand
TTITLE21=Ich gehe
EXTD=
EXTT0=
EXTT1=
EXTT2=
EXTT3=
EXTT4=
EXTT5=
EXTT6=
EXTT7=
EXTT8=
EXTT9=
EXTT10=
EXTT11=
EXTT12=
EXTT13=
EXTT14=
EXTT15=
EXTT16=
EXTT17=
EXTT18=
EXTT19=
EXTT20=
EXTT21=
PLAYORDER=
